<?xml version="1.0" encoding="UTF-8"?>
<svg xmlns="http://www.w3.org/2000/svg" xmlns:xlink="http://www.w3.org/1999/xlink" width="0" height="0">
    <symbol id="arrow-up-right" viewBox="0 0 24 24" fill="none" stroke="currentColor" stroke-width="2"
        stroke-linecap="round" stroke-linejoin="round">
        <path d="M7 7h10v10" />
        <path d="M7 17 17 7" />
    </symbol>
    <symbol id="x" viewBox="0 0 24 24" fill="none" stroke="currentColor" stroke-width="2" stroke-linecap="round"
        stroke-linejoin="round">
        <path d="M18 6 6 18" />
        <path d="m6 6 12 12" />
    </symbol>
    <symbol id="github" viewBox="0 0 98 96">
        <path fill-rule="evenodd" clip-rule="evenodd"
            d="M48.854 0C21.839 0 0 22 0 49.217c0 21.756 13.993 40.172 33.405 46.69 2.427.49 3.316-1.059 3.316-2.362 0-1.141-.08-5.052-.08-9.127-13.59 2.934-16.42-5.867-16.42-5.867-2.184-5.704-5.42-7.17-5.42-7.17-4.448-3.015.324-3.015.324-3.015 4.934.326 7.523 5.052 7.523 5.052 4.367 7.496 11.404 5.378 14.235 4.074.404-3.178 1.699-5.378 3.074-6.6-10.839-1.141-22.243-5.378-22.243-24.283 0-5.378 1.94-9.778 5.014-13.2-.485-1.222-2.184-6.275.486-13.038 0 0 4.125-1.304 13.426 5.052a47 47 0 0 1 12.214-1.63c4.125 0 8.33.571 12.213 1.63 9.302-6.356 13.427-5.052 13.427-5.052 2.67 6.763.97 11.816.485 13.038 3.155 3.422 5.015 7.822 5.015 13.2 0 18.905-11.404 23.06-22.324 24.283 1.78 1.548 3.316 4.481 3.316 9.126 0 6.6-.08 11.897-.08 13.526 0 1.304.89 2.853 3.316 2.364 19.412-6.52 33.405-24.935 33.405-46.691C97.707 22 75.788 0 48.854 0"
            fill="currentColor" />
    </symbol>
    <symbol id="menu" viewBox="0 0 24 24" fill="none" transform="scale(-1 1)">
        <g stroke-width="0" />
        <g stroke-linecap="round" stroke-linejoin="round" />
        <path d="M3 12h12M3 6h18M3 18h18" stroke="currentColor" stroke-width="2" stroke-linecap="round"
            stroke-linejoin="round" />
    </symbol>
    <symbol id="moon" viewBox="0 0 24 24" fill="none" stroke="currentColor" stroke-width="2" stroke-linecap="round"
        stroke-linejoin="round">
        <path d="M12 3a6 6 0 0 0 9 9 9 9 0 1 1-9-9Z" />
    </symbol>
    <symbol id="sun" viewBox="0 0 24 24" fill="none" stroke="currentColor" stroke-width="2" stroke-linecap="round"
        stroke-linejoin="round" class="lucide lucide-sun-icon lucide-sun">
        <circle cx="12" cy="12" r="4" />
        <path
            d="M12 2v2m0 16v2M4.93 4.93l1.41 1.41m11.32 11.32 1.41 1.41M2 12h2m16 0h2M6.34 17.66l-1.41 1.41M19.07 4.93l-1.41 1.41" />
    </symbol>
    <symbol id="sparkles" viewBox="0 0 24 24" fill="currentColor" aria-hidden="true">
        <path fill-rule="evenodd"
            d="M9 4.5a.75.75 0 0 1 .721.544l.813 2.846a3.75 3.75 0 0 0 2.576 2.576l2.846.813a.75.75 0 0 1 0 1.442l-2.846.813a3.75 3.75 0 0 0-2.576 2.576l-.813 2.846a.75.75 0 0 1-1.442 0l-.813-2.846a3.75 3.75 0 0 0-2.576-2.576l-2.846-.813a.75.75 0 0 1 0-1.442l2.846-.813A3.75 3.75 0 0 0 7.466 7.89l.813-2.846A.75.75 0 0 1 9 4.5m9-3a.75.75 0 0 1 .728.568l.258 1.036a2.63 2.63 0 0 0 1.91 1.91l1.036.258a.75.75 0 0 1 0 1.456l-1.036.258a2.63 2.63 0 0 0-1.91 1.91l-.258 1.036a.75.75 0 0 1-1.456 0l-.258-1.036a2.63 2.63 0 0 0-1.91-1.91l-1.036-.258a.75.75 0 0 1 0-1.456l1.036-.258a2.63 2.63 0 0 0 1.91-1.91l.258-1.036A.75.75 0 0 1 18 1.5M16.5 15a.75.75 0 0 1 .712.513l.394 1.183c.15.447.5.799.948.948l1.183.395a.75.75 0 0 1 0 1.422l-1.183.395a1.5 1.5 0 0 0-.948.948l-.395 1.183a.75.75 0 0 1-1.422 0l-.395-1.183a1.5 1.5 0 0 0-.948-.948l-1.183-.395a.75.75 0 0 1 0-1.422l1.183-.395a1.5 1.5 0 0 0 .948-.948l.395-1.183A.75.75 0 0 1 16.5 15"
            clip-rule="evenodd" />
    </symbol>
    <symbol id="calendar-check" viewBox="0 0 24 24" fill="none" stroke="currentColor" stroke-width="2"
        stroke-linecap="round" stroke-linejoin="round">
        <path d="M8 2v4m8-4v4" />
        <rect width="18" height="18" x="3" y="4" rx="2" />
        <path d="M3 10h18M9 16l2 2 4-4" />
    </symbol>
    <symbol id="write-book" viewBox="-0.5 -0.5 24 24">
        <path d="M1.438 17.902h6.401a3.66 3.66 0 0 1 3.661 3.66H1.438z" fill="none" stroke="currentColor"
            stroke-width="1.5" stroke-miterlimit="10" />
        <path d="M15.16 17.902h6.403v3.66H11.5a3.66 3.66 0 0 1 3.66-3.66Z" fill="none" stroke="currentColor"
            stroke-width="1.5" stroke-miterlimit="10" />
        <path d="M1.438 6.009h6.401a3.66 3.66 0 0 1 3.661 3.66v11.894H1.438z" fill="none" stroke="currentColor"
            stroke-width="1.5" stroke-miterlimit="10" />
        <path d="M18.822 6.009h2.74v15.554H11.5V9.67a3.66 3.66 0 0 1 3.66-3.661" fill="none" stroke="currentColor"
            stroke-width="1.5" stroke-miterlimit="10" />
        <path d="m18.822 12.458-1.83 1.83-1.831-1.83v-9.19a1.82 1.82 0 0 1 1.83-1.83 1.83 1.83 0 0 1 1.83 1.83Z"
            fill="none" stroke="currentColor" stroke-miterlimit="10" />
    </symbol>
    <symbol id="graph-bar-increase" fill="none" viewBox="0 0 14 14">
        <path
            d="m1.24 6.54 11.5-5.23M10.59.5l2.15.81-.8 2.15m1.31 10.04h-2.5v-7a.5.5 0 0 1 .5-.5h1.5a.5.5 0 0 1 .5.5zm-5 0h-2.5V8a.5.5 0 0 1 .5-.5h1.5a.5.5 0 0 1 .5.5zm-5 0H.75v-4a.5.5 0 0 1 .5-.5h1.5a.5.5 0 0 1 .5.5z"
            stroke="currentColor" stroke-linecap="round" stroke-linejoin="round" />
    </symbol>
    <symbol id="circle-check" viewBox="0 0 24 24" fill="none" stroke="currentColor" stroke-width="2"
        stroke-linecap="round" stroke-linejoin="round">
        <circle cx="12" cy="12" r="10" />
        <path d="m9 12 2 2 4-4" />
    </symbol>
    <symbol id="star" viewBox="0 0 24 24" fill="none" stroke="currentColor" stroke-width="2" stroke-linecap="round"
        stroke-linejoin="round">
        <path
            d="M11.525 2.295a.53.53 0 0 1 .95 0l2.31 4.679a2.12 2.12 0 0 0 1.595 1.16l5.166.756a.53.53 0 0 1 .294.904l-3.736 3.638a2.12 2.12 0 0 0-.611 1.878l.882 5.14a.53.53 0 0 1-.771.56l-4.618-2.428a2.12 2.12 0 0 0-1.973 0L6.396 21.01a.53.53 0 0 1-.77-.56l.881-5.139a2.12 2.12 0 0 0-.611-1.879L2.16 9.795a.53.53 0 0 1 .294-.906l5.165-.755a2.12 2.12 0 0 0 1.597-1.16z" />
    </symbol>
    <symbol id="crystal-ball" viewBox="0 0 24 24" fill="none" stroke="currentColor" stroke-linecap="round"
        stroke-linejoin="round">
        <path d="M6.73 17.018a8 8 0 1 1 10.54 0" stroke-width="2" />
        <path d="M5 19a2 2 0 0 0 2 2h10a2 2 0 1 0 0-4H7a2 2 0 0 0-2 2m6-12a3 3 0 0 0-3 3" stroke-width="2" />
    </symbol>
    <symbol id="user" viewBox="0 0 24 24" fill="none" stroke="currentColor" stroke-width="2" stroke-linecap="round"
        stroke-linejoin="round">
        <path d="M19 21v-2a4 4 0 0 0-4-4H9a4 4 0 0 0-4 4v2" />
        <circle cx="12" cy="7" r="4" />
    </symbol>
    <symbol id="cloud-upload" viewBox="0 0 24 24" fill="none" stroke="currentColor" stroke-width="2"
        stroke-linecap="round" stroke-linejoin="round">
        <path d="M12 13v8m-8-6.101A7 7 0 1 1 15.71 8h1.79a4.5 4.5 0 0 1 2.5 8.242" />
        <path d="m8 17 4-4 4 4" />
    </symbol>
    <symbol id="bolt" viewBox="0 0 24 24" fill="none" stroke="currentColor" stroke-width="2" stroke-linecap="round"
        stroke-linejoin="round">
        <path
            d="M21 16V8a2 2 0 0 0-1-1.73l-7-4a2 2 0 0 0-2 0l-7 4A2 2 0 0 0 3 8v8a2 2 0 0 0 1 1.73l7 4a2 2 0 0 0 2 0l7-4A2 2 0 0 0 21 16" />
        <circle cx="12" cy="12" r="4" />
    </symbol>
    <symbol id="telescope" viewBox="0 0 24 24" fill="none" stroke="currentColor" stroke-width="2" stroke-linecap="round"
        stroke-linejoin="round">
        <path
            d="m10.065 12.493-6.18 1.318a.934.934 0 0 1-1.108-.702l-.537-2.15a1.07 1.07 0 0 1 .691-1.265l13.504-4.44m-2.875 6.493 4.332-.924M16 21l-3.105-6.21" />
        <path
            d="M16.485 5.94a2 2 0 0 1 1.455-2.425l1.09-.272a1 1 0 0 1 1.212.727l1.515 6.06a1 1 0 0 1-.727 1.213l-1.09.272a2 2 0 0 1-2.425-1.455zM6.158 8.633l1.114 4.456M8 21l3.105-6.21" />
        <circle cx="12" cy="13" r="2" />
    </symbol>
    <symbol id="circle-help" viewBox="0 0 24 24" fill="none" stroke="currentColor" stroke-width="2"
        stroke-linecap="round" stroke-linejoin="round">
        <circle cx="12" cy="12" r="10" />
        <path d="M9.09 9a3 3 0 0 1 5.83 1c0 2-3 3-3 3m.08 4h.01" />
    </symbol>
    <symbol id="definition-search-book" fill="none" viewBox="0 0 14 14">
        <path
            d="M13.486 5.993V1.68c0-.43-.274-.819-.693-.916C10.81.303 8.448.527 7 1.492v4.5m0-4.5C5.552.527 3.19.303 1.207.765c-.42.097-.693.485-.693.916v8.234c0 .34.335.583.667.504 1.265-.298 2.686-.318 3.928-.042m8.29 3.032-1.187-1.187m-2.062.687c1.76 0 2.75-.99 2.75-2.75s-.99-2.75-2.75-2.75-2.75.99-2.75 2.75.99 2.75 2.75 2.75"
            stroke="currentColor" stroke-linecap="round" stroke-linejoin="round" />
    </symbol>
    <symbol id="video" viewBox="0 0 24 24" fill="none" stroke="currentColor" stroke-width="2" stroke-linecap="round"
        stroke-linejoin="round">
        <path d="m16 13 5.223 3.482a.5.5 0 0 0 .777-.416V7.87a.5.5 0 0 0-.752-.432L16 10.5" />
        <rect x="2" y="6" width="14" height="12" rx="2" />
    </symbol>
    <symbol id="customer-support" fill="none" viewBox="0 0 14 14">
        <g stroke="currentColor" stroke-linecap="round" stroke-linejoin="round">
            <path
                d="M6.502 5.004V.75M7 8.965c1 1 3 2.035 5.5 2.035m-9.783 2.491.001-.826c.003-.79-.173-1.576-.589-2.249C1.374 9.194.75 8.392.75 6c0-2.222.792-3.738 2.244-4.55m8.636 7.775V8.62l.785-.02a.8.8 0 0 0 .658-.342c.515-.735-1.584-2.517-1.733-3.588-.235-1.686-1.103-2.737-2.288-3.322M8.735 12.25v1.241" />
            <path d="M6.502 9c1.28 0 2-.72 2-2s-.72-2-2-2-2 .72-2 2 .72 2 2 2" />
        </g>
    </symbol>
    <symbol id="chevron-down" viewBox="0 0 24 24" fill="none" stroke="currentColor" stroke-width="2"
        stroke-linecap="round" stroke-linejoin="round">
        <path d="m6 9 6 6 6-6" />
    </symbol>
    <symbol id="search" viewBox="0 0 24 24" fill="none" stroke="currentColor" stroke-width="2" stroke-linecap="round"
        stroke-linejoin="round">
        <path d="m21 21-4.34-4.34" />
        <circle cx="11" cy="11" r="8" />
    </symbol>
    <symbol id="mail" viewBox="0 0 24 24" fill="none" stroke="currentColor" stroke-width="2" stroke-linecap="round"
        stroke-linejoin="round">
        <path d="m22 7-8.991 5.727a2 2 0 0 1-2.009 0L2 7" />
        <rect x="2" y="4" width="20" height="16" rx="2" />
    </symbol>
    <symbol id="message-circle" viewBox="0 0 24 24" fill="none" stroke="currentColor" stroke-width="2"
        stroke-linecap="round" stroke-linejoin="round">
        <path d="M7.9 20A9 9 0 1 0 4 16.1L2 22Z" />
    </symbol>
    <symbol id="circle-clock" viewBox="0 0 14 14" version="1.1">
        <path
            d="M6.44 0.020944C5.509658000000001 0.099708 4.6690000000000005 0.335272 3.857 0.744744C1.180788 2.094302 -0.33915 4.978204 0.062174 7.945C0.470722 10.965262 2.81169 13.38792 5.817 13.900656C7.295190000000001 14.152852000000001 8.80579 13.927382 10.143 13.254962C11.379620000000001 12.633124 12.40624 11.657226 13.092674 10.451C13.594266000000001 9.569574000000001 13.922398 8.486744 13.980526000000001 7.52108C13.985762 7.4342239999999995 13.995436 7.359828 14.002016000000001 7.355753999999999C14.008610000000001 7.35168 14.013902000000002 7.183344 14.01379 6.981674C14.013664 6.780004 14.008316 6.623288 14.00189 6.6334100000000005C13.99503 6.644246 13.986308000000001 6.583696000000001 13.980722 6.48641C13.925422000000001 5.523392 13.595806000000001 4.433114000000001 13.092674 3.549C12.010026000000002 1.646554 10.101672 0.353906 7.945 0.062174C7.49532 0.0013440000000000001 6.872894 -0.015708000000000003 6.44 0.020944M6.573 1.016316C5.987996 1.071924 5.62422 1.142904 5.16768 1.290492C4.261726 1.5833860000000002 3.495114 2.045596 2.815694 2.708566C2.100462 3.406466 1.59796 4.21666 1.290492 5.16768C1.167754 5.547332 1.089228 5.914146000000001 1.0331020000000002 6.37C1.008616 6.568898 1.008616 7.431102 1.0331020000000002 7.63C1.12469 8.373904 1.300236 8.985522 1.601656 9.611C2.0191220000000003 10.477306 2.650942 11.23906 3.4370000000000003 11.823784000000002C4.158784 12.360712000000001 5.025048 12.735688 5.922 12.899446000000001C6.327762 12.973519999999999 6.468532000000001 12.98465 7 12.98465C7.531468 12.98465 7.672238000000001 12.973519999999999 8.078 12.899446000000001C9.564408 12.628070000000001 10.887366 11.807978 11.80193 10.591000000000001C12.35535 9.854586 12.73293 8.990016 12.899446000000001 8.078C12.973519999999999 7.672238000000001 12.98465 7.531468 12.98465 7C12.98465 6.468532000000001 12.973519999999999 6.327762 12.899446000000001 5.922C12.626166000000001 4.425204 11.795014 3.092684 10.563 2.1762159999999997C9.836932000000001 1.636096 8.916754 1.2406380000000001 8.043000000000001 1.093232C7.668290000000001 1.030008 7.534492 1.019172 7.077 1.015042C6.8306 1.012816 6.6038 1.01339 6.573 1.016316M6.816964 4.0360879999999995C6.658904000000001 4.10249 6.547128 4.231822 6.514900000000001 4.385598C6.500578 4.4539040000000005 6.496574 4.752846 6.496504 5.7540000000000004C6.496434 7.1277360000000005 6.496602 7.131236 6.567386 7.25011C6.6209359999999995 7.3400039999999995 9.181998 10.316348 9.245586 10.362575999999999C9.346596 10.43602 9.389814000000001 10.448801999999999 9.541 10.449936C9.674826 10.450958 9.684906 10.448886000000002 9.769494 10.403022C9.932986000000001 10.314374 10.0219 10.177342 10.034416 9.994698000000001C10.043572000000001 9.860984 10.015502000000001 9.76318 9.938922 9.661988000000001C9.908934 9.622382 9.348822 8.96595 8.69421 8.203258L7.5040000000000004 6.81653 7.5040000000000004 5.650176C7.5040000000000004 4.919740000000001 7.4986939999999995 4.455822 7.48979 4.408894C7.45976 4.250568 7.354731999999999 4.1148240000000005 7.210027999999999 4.047358C7.098308 3.9952639999999997 6.925912 3.9903220000000004 6.816964 4.0360879999999995M0.006118 7C0.006118 7.2040500000000005 0.008078 7.287532000000001 0.010458 7.1855C0.012852 7.083468 0.012852 6.916532 0.010458 6.8145C0.008078 6.712468 0.006118 6.79595 0.006118 7"
            stroke="none" fill="currentColor" fill-rule="evenodd" stroke-width="0.014"></path>
    </symbol>
</svg>